<?xml version="1.0" encoding="iso-8859-1"?>
<!-- Generator: Adobe Illustrator 19.0.0, SVG Export Plug-In . SVG Version: 6.00 Build 0)  -->
<svg version="1.1" id="Layer_1" xmlns="http://www.w3.org/2000/svg" xmlns:xlink="http://www.w3.org/1999/xlink" x="0px" y="0px"
	 viewBox="0 0 512 512" style="enable-background:new 0 0 512 512;" xml:space="preserve">
<g>
	<g>
		<g>
			<path d="M358.384,145.067c-18.825,0-34.133,15.309-34.133,34.133s15.309,34.133,34.133,34.133
				c18.816,0,34.133-15.309,34.133-34.133S377.2,145.067,358.384,145.067z M358.384,170.667c-4.71,0-8.533-3.823-8.533-8.533
				c0-4.71,3.823-8.533,8.533-8.533c4.71,0,8.533,3.823,8.533,8.533C366.917,166.844,363.094,170.667,358.384,170.667z"/>
			<path d="M187.737,179.2c0-18.825-15.309-34.133-34.133-34.133c-18.825,0-34.133,15.309-34.133,34.133
				s15.309,34.133,34.133,34.133C172.428,213.333,187.737,198.025,187.737,179.2z M145.07,196.267c0-4.71,3.823-8.533,8.533-8.533
				c4.71,0,8.533,3.823,8.533,8.533s-3.823,8.533-8.533,8.533C148.893,204.8,145.07,200.977,145.07,196.267z"/>
			<path d="M256,0C114.842,0,0,114.842,0,256s114.842,256,256,256s256-114.842,256-256S397.158,0,256,0z M102.4,179.2
				c0-27.298,21.487-49.604,48.427-51.063l-11.597-11.588c-3.336-3.337-3.336-8.738,0-12.066c3.328-3.336,8.73-3.336,12.066,0
				l76.587,76.587c3.337,3.328,3.337,8.73,0,12.066c-1.664,1.664-3.849,2.5-6.033,2.5c-2.185,0-4.369-0.836-6.033-2.5
				l-11.153-11.153c-1.459,26.94-23.765,48.418-51.063,48.418C125.372,230.4,102.4,207.437,102.4,179.2z M365.79,328.542
				c-23.219,40.073-64.256,63.991-109.79,63.991c-45.525,0-86.571-23.919-109.781-63.991c-2.364-4.079-0.973-9.293,3.106-11.657
				c4.096-2.372,9.301-0.973,11.665,3.106c20.122,34.739,55.646,55.475,95.01,55.475c39.373,0,74.897-20.736,95.019-55.475
				c2.372-4.079,7.578-5.478,11.665-3.106C366.754,319.249,368.154,324.463,365.79,328.542z M358.383,230.4
				c-27.298,0-49.604-21.478-51.063-48.418l-11.153,11.153c-1.664,1.664-3.849,2.5-6.033,2.5c-2.176,0-4.361-0.836-6.033-2.5
				c-3.328-3.337-3.328-8.738,0-12.066l76.595-76.587c3.328-3.336,8.73-3.336,12.066,0c3.328,3.328,3.328,8.73,0,12.066
				l-11.597,11.588c26.94,1.459,48.418,23.765,48.418,51.063C409.583,207.437,386.62,230.4,358.383,230.4z"/>
		</g>
	</g>
</g>
<g>
</g>
<g>
</g>
<g>
</g>
<g>
</g>
<g>
</g>
<g>
</g>
<g>
</g>
<g>
</g>
<g>
</g>
<g>
</g>
<g>
</g>
<g>
</g>
<g>
</g>
<g>
</g>
<g>
</g>
</svg>
